<?xml version="1.0" standalone="no"?>
<!DOCTYPE svg PUBLIC "-//W3C//DTD SVG 20010904//EN"
 "http://www.w3.org/TR/2001/REC-SVG-20010904/DTD/svg10.dtd">
<svg version="1.0" xmlns="http://www.w3.org/2000/svg"
 width="566.000000pt" height="566.000000pt" viewBox="0 0 566.000000 566.000000"
 preserveAspectRatio="xMidYMid meet">
<metadata>
Created by potrace 1.14, written by Peter Selinger 2001-2017
</metadata>
<g transform="translate(0.000000,566.000000) scale(0.100000,-0.100000)"
fill="#000000" stroke="none">
<path d="M3060 4568 c-261 -58 -365 -91 -450 -141 -87 -52 -253 -167 -281
-196 -9 -9 -61 -55 -116 -104 -56 -48 -141 -131 -189 -185 -49 -53 -100 -109
-114 -123 -14 -15 -105 -125 -203 -246 -152 -187 -189 -239 -247 -350 -85
-161 -102 -222 -99 -357 3 -173 14 -220 88 -393 37 -87 76 -185 86 -218 21
-74 109 -279 136 -316 10 -15 19 -30 19 -34 0 -11 80 -128 134 -194 48 -59
175 -171 343 -301 63 -49 71 -58 67 -83 -10 -61 -33 -77 -116 -77 -26 0 -69
-5 -97 -11 -120 -25 -145 -173 -48 -276 22 -23 44 -40 49 -37 5 3 7 1 6 -4 -3
-10 120 -111 135 -112 5 0 37 -12 73 -26 46 -18 68 -23 81 -16 12 7 36 3 85
-15 56 -21 71 -23 83 -13 14 11 14 15 -1 31 -9 10 -42 28 -72 39 -38 15 -67
34 -91 62 -22 25 -58 51 -98 69 -70 31 -154 91 -165 117 -20 50 1 136 29 119
20 -13 86 -16 105 -6 51 27 116 101 129 145 11 35 19 46 39 50 14 3 43 10 66
15 22 6 58 8 80 5 31 -5 65 2 145 29 57 20 116 40 131 45 l27 9 -35 -46 c-19
-24 -34 -48 -35 -51 -1 -12 -7 -33 -34 -132 -45 -161 -44 -148 -31 -380 l8
-145 -39 -36 c-95 -89 -158 -128 -289 -178 -73 -28 -142 -52 -155 -55 -86 -15
-180 -51 -195 -73 -8 -14 -31 -31 -50 -39 -22 -9 -34 -21 -34 -34 0 -20 11
-26 24 -12 4 4 11 7 14 8 4 0 20 6 35 12 23 10 35 9 62 -4 19 -9 42 -13 52
-10 10 3 38 8 63 11 152 19 310 58 310 76 0 6 4 8 8 5 10 -6 95 48 160 101 56
46 117 137 136 204 8 30 17 113 21 184 3 72 8 146 11 165 2 19 6 73 8 120 3
74 8 96 44 174 48 106 125 200 172 210 20 4 29 10 24 17 -4 7 -3 9 3 6 6 -4
66 19 134 52 68 32 178 82 244 111 163 71 348 182 486 292 162 130 231 199
306 309 57 84 64 100 59 130 -3 19 -9 68 -12 109 -3 41 -10 91 -15 111 -5 20
-11 74 -14 120 -6 88 -68 373 -164 749 -46 178 -73 259 -128 390 -39 91 -81
193 -93 227 -12 34 -38 80 -56 102 -50 58 -176 159 -279 224 -76 48 -105 60
-185 77 -115 24 -178 24 -290 -2z"/>
</g>
</svg>
